<?xml version="1.0" encoding="UTF-8" standalone="no"?><!DOCTYPE svg PUBLIC "-//W3C//DTD SVG 1.1//EN" "http://www.w3.org/Graphics/SVG/1.1/DTD/svg11.dtd"><svg width="100%" height="100%" viewBox="0 0 451 57" version="1.1" xmlns="http://www.w3.org/2000/svg" xmlns:xlink="http://www.w3.org/1999/xlink" xml:space="preserve" style="fill-rule:evenodd;clip-rule:evenodd;stroke-linejoin:round;stroke-miterlimit:1.41421;"><path d="M31.688,16.063l9.5,0c-0.292,-2.584 -1.001,-4.875 -2.126,-6.875c-1.125,-2 -2.552,-3.678 -4.281,-5.032c-1.729,-1.354 -3.687,-2.385 -5.875,-3.093c-2.187,-0.709 -4.51,-1.063 -6.968,-1.063c-3.417,0 -6.49,0.604 -9.219,1.813c-2.729,1.208 -5.032,2.875 -6.907,5c-1.875,2.125 -3.312,4.614 -4.312,7.468c-1,2.854 -1.5,5.948 -1.5,9.282c0,3.25 0.5,6.281 1.5,9.093c1,2.813 2.437,5.261 4.312,7.344c1.875,2.083 4.178,3.719 6.907,4.906c2.729,1.188 5.802,1.782 9.219,1.782c2.749,-0.001 5.27,-0.417 7.562,-1.25c2.292,-0.834 4.292,-2.042 6,-3.626c1.708,-1.583 3.083,-3.499 4.125,-5.749c1.042,-2.25 1.687,-4.771 1.938,-7.563l-9.5,0c-0.375,3 -1.407,5.417 -3.094,7.25c-1.688,1.833 -4.031,2.75 -7.031,2.75c-2.209,0 -4.084,-0.427 -5.626,-1.281c-1.541,-0.854 -2.791,-1.99 -3.749,-3.406c-0.959,-1.417 -1.657,-3.011 -2.094,-4.782c-0.438,-1.771 -0.657,-3.594 -0.657,-5.469c0,-1.958 0.219,-3.854 0.657,-5.687c0.437,-1.833 1.135,-3.469 2.094,-4.906c0.958,-1.438 2.208,-2.584 3.749,-3.438c1.542,-0.854 3.417,-1.281 5.626,-1.281c1.208,0 2.364,0.198 3.468,0.594c1.104,0.396 2.094,0.948 2.969,1.656c0.875,0.708 1.604,1.531 2.188,2.469c0.583,0.937 0.958,1.969 1.125,3.094l0,0Z" style="fill:#000b9b;fill-rule:nonzero;"/><path d="M77.625,45.688l0,-32.313l-8.875,0l0,16.938c0,3.291 -0.542,5.656 -1.625,7.093c-1.083,1.438 -2.833,2.157 -5.25,2.157c-2.125,-0.001 -3.604,-0.657 -4.438,-1.969c-0.833,-1.313 -1.25,-3.302 -1.25,-5.969l0,-18.25l-8.874,0l0,19.875c0,2 0.177,3.823 0.531,5.469c0.354,1.646 0.969,3.041 1.844,4.187c0.874,1.146 2.072,2.032 3.593,2.657c1.521,0.625 3.469,0.937 5.844,0.937c1.875,0 3.708,-0.417 5.5,-1.25c1.792,-0.833 3.25,-2.188 4.375,-4.063l0.188,0.001l0,4.5l8.437,0Z" style="fill:#000b9b;fill-rule:nonzero;"/><path d="M84.375,13.375l0,32.313l8.875,-0.001l0,-14.562c0,-1.458 0.146,-2.813 0.438,-4.062c0.291,-1.251 0.781,-2.344 1.468,-3.282c0.688,-0.937 1.594,-1.677 2.719,-2.219c1.125,-0.541 2.5,-0.812 4.125,-0.812c0.542,0 1.104,0.031 1.688,0.094c0.583,0.062 1.083,0.135 1.5,0.219l0,-8.25c-0.709,-0.209 -1.355,-0.313 -1.938,-0.313c-1.125,0 -2.208,0.167 -3.25,0.5c-1.042,0.333 -2.021,0.802 -2.937,1.406c-0.917,0.604 -1.73,1.334 -2.438,2.188c-0.708,0.854 -1.271,1.781 -1.687,2.781l-0.125,0l0,-6l-8.438,0l0,0Z" style="fill:#000b9b;fill-rule:nonzero;"/><path d="M121.438,13.375l0,-9.688l-8.875,0.001l0,9.687l-5.375,0l0,5.938l5.375,0l0,19.062c0,1.625 0.27,2.938 0.812,3.938c0.542,0.999 1.281,1.77 2.219,2.312c0.937,0.542 2.021,0.906 3.25,1.094c1.229,0.187 2.531,0.281 3.906,0.281c0.875,0 1.771,-0.021 2.688,-0.063c0.916,-0.041 1.75,-0.124 2.5,-0.249l0,-6.875c-0.417,0.083 -0.855,0.145 -1.313,0.187c-0.458,0.042 -0.937,0.063 -1.437,0.063c-1.5,0 -2.5,-0.25 -3,-0.75c-0.5,-0.5 -0.75,-1.5 -0.75,-3l0,-16l6.5,0l0,-5.938l-6.5,0l0,0Z" style="fill:#000b9b;fill-rule:nonzero;"/><path d="M141.313,8.375l0,-7.313l-8.876,0l0,7.313l8.876,0Zm-8.876,5l0,32.313l8.876,-0.001l0,-32.312l-8.876,0l0,0Z" style="fill:#000b9b;fill-rule:nonzero;"/><path d="M155.188,35.188l-8.438,-0.001c0.083,2.167 0.573,3.969 1.469,5.407c0.896,1.437 2.041,2.594 3.437,3.468c1.396,0.875 2.99,1.5 4.781,1.875c1.792,0.375 3.625,0.563 5.5,0.563c1.834,0 3.636,-0.177 5.407,-0.531c1.771,-0.354 3.343,-0.969 4.718,-1.844c1.375,-0.875 2.49,-2.031 3.344,-3.469c0.854,-1.437 1.281,-3.219 1.281,-5.343c0,-1.5 -0.291,-2.761 -0.875,-3.782c-0.583,-1.021 -1.354,-1.875 -2.312,-2.562c-0.958,-0.688 -2.052,-1.24 -3.281,-1.657c-1.229,-0.416 -2.49,-0.77 -3.781,-1.062c-1.25,-0.292 -2.48,-0.563 -3.688,-0.813c-1.208,-0.249 -2.281,-0.531 -3.219,-0.843c-0.937,-0.313 -1.698,-0.719 -2.281,-1.219c-0.583,-0.5 -0.875,-1.146 -0.875,-1.937c0,-0.667 0.167,-1.198 0.5,-1.594c0.333,-0.396 0.74,-0.698 1.219,-0.907c0.479,-0.208 1.01,-0.343 1.594,-0.406c0.583,-0.062 1.125,-0.093 1.624,-0.093c1.584,0 2.959,0.302 4.125,0.906c1.167,0.604 1.813,1.76 1.938,3.468l8.438,0c-0.167,-2 -0.678,-3.656 -1.532,-4.968c-0.854,-1.313 -1.927,-2.365 -3.219,-3.156c-1.291,-0.792 -2.76,-1.355 -4.406,-1.688c-1.646,-0.333 -3.343,-0.5 -5.093,-0.5c-1.751,0 -3.459,0.156 -5.126,0.469c-1.666,0.312 -3.166,0.854 -4.5,1.625c-1.333,0.771 -2.406,1.823 -3.218,3.156c-0.813,1.333 -1.219,3.042 -1.219,5.125c0,1.417 0.292,2.615 0.875,3.594c0.583,0.979 1.354,1.791 2.313,2.437c0.958,0.646 2.052,1.167 3.281,1.563c1.229,0.396 2.489,0.739 3.781,1.031c3.167,0.667 5.635,1.333 7.406,2c1.771,0.667 2.657,1.667 2.657,3c0,0.792 -0.188,1.448 -0.563,1.969c-0.375,0.521 -0.844,0.937 -1.406,1.25c-0.563,0.312 -1.188,0.541 -1.875,0.687c-0.688,0.146 -1.344,0.219 -1.969,0.219c-0.875,0 -1.719,-0.104 -2.531,-0.313c-0.813,-0.208 -1.532,-0.531 -2.156,-0.968c-0.625,-0.438 -1.136,-1 -1.532,-1.688c-0.396,-0.687 -0.593,-1.51 -0.593,-2.469l0,0.001Z" style="fill:#000b9b;fill-rule:nonzero;"/><path d="M198.688,1.063l0,44.625l31.562,-0.001l0,-8.25l-21.75,0l0,-36.375l-9.813,0l0.001,0.001Z" style="fill:#e2090a;fill-rule:nonzero;"/><path d="M234.437,23.313c0.125,-2.084 0.646,-3.813 1.563,-5.188c0.917,-1.375 2.083,-2.479 3.5,-3.313c1.417,-0.833 3.01,-1.427 4.781,-1.781c1.771,-0.354 3.552,-0.531 5.344,-0.531c1.625,0 3.271,0.115 4.938,0.344c1.666,0.229 3.187,0.677 4.562,1.344c1.375,0.666 2.5,1.593 3.375,2.781c0.875,1.187 1.313,2.76 1.313,4.719l0,16.812c0,1.458 0.083,2.854 0.25,4.188c0.166,1.333 0.458,2.333 0.875,2.999l-9.001,0c-0.166,-0.5 -0.302,-1.01 -0.406,-1.531c-0.104,-0.521 -0.177,-1.052 -0.218,-1.594c-1.417,1.459 -3.084,2.48 -5.001,3.063c-1.916,0.583 -3.875,0.875 -5.874,0.875c-1.542,0 -2.98,-0.188 -4.313,-0.563c-1.333,-0.375 -2.5,-0.958 -3.5,-1.75c-1,-0.791 -1.781,-1.791 -2.344,-3c-0.562,-1.208 -0.844,-2.645 -0.844,-4.312c0,-1.833 0.323,-3.344 0.969,-4.531c0.646,-1.188 1.479,-2.136 2.5,-2.844c1.021,-0.708 2.188,-1.24 3.5,-1.594c1.313,-0.354 2.636,-0.635 3.969,-0.843c1.333,-0.209 2.646,-0.375 3.937,-0.501c1.292,-0.125 2.438,-0.312 3.438,-0.562c1,-0.25 1.792,-0.615 2.375,-1.094c0.583,-0.479 0.854,-1.177 0.813,-2.094c0,-0.958 -0.157,-1.718 -0.469,-2.281c-0.313,-0.562 -0.729,-1 -1.25,-1.312c-0.521,-0.313 -1.125,-0.521 -1.813,-0.625c-0.687,-0.104 -1.427,-0.156 -2.219,-0.156c-1.749,0 -3.125,0.375 -4.125,1.125c-0.999,0.75 -1.583,1.999 -1.749,3.75l-8.876,0l0,0Zm20.501,6.562c-0.375,0.333 -0.844,0.594 -1.407,0.781c-0.562,0.188 -1.166,0.344 -1.812,0.469c-0.646,0.125 -1.323,0.229 -2.031,0.312c-0.709,0.084 -1.417,0.188 -2.126,0.313c-0.666,0.125 -1.322,0.292 -1.968,0.5c-0.646,0.208 -1.209,0.49 -1.688,0.844c-0.479,0.354 -0.864,0.802 -1.156,1.343c-0.292,0.542 -0.438,1.23 -0.438,2.063c0,0.792 0.146,1.458 0.438,2c0.292,0.542 0.687,0.969 1.187,1.281c0.501,0.313 1.084,0.532 1.75,0.657c0.667,0.125 1.355,0.187 2.063,0.187c1.75,0 3.104,-0.292 4.062,-0.875c0.959,-0.583 1.667,-1.281 2.125,-2.094c0.459,-0.812 0.74,-1.635 0.844,-2.468c0.104,-0.834 0.157,-1.501 0.157,-2.001l0,-3.312l0,0Z" style="fill:#e2090a;fill-rule:nonzero;"/><path d="M286.625,49.688l13.5,-36.313l-9.188,0l-7.062,22.125l-0.125,0l-7.313,-22.125l-9.437,0l11.313,30.313c0.25,0.625 0.375,1.291 0.375,1.999c0,0.959 -0.282,1.834 -0.844,2.625c-0.563,0.792 -1.427,1.251 -2.594,1.375c-0.875,0.042 -1.75,0.021 -2.625,-0.062c-0.875,-0.083 -1.729,-0.167 -2.563,-0.25l0,7.313c0.917,0.083 1.823,0.156 2.719,0.218c0.896,0.063 1.802,0.094 2.719,0.094c3.042,0 5.417,-0.563 7.125,-1.688c1.708,-1.125 3.042,-3 4,-5.625l0,0.001Z" style="fill:#e2090a;fill-rule:nonzero;"/><path d="M333.813,16.063l9.5,0c-0.292,-2.584 -1,-4.875 -2.125,-6.875c-1.125,-2 -2.553,-3.678 -4.282,-5.032c-1.729,-1.354 -3.687,-2.385 -5.875,-3.093c-2.187,-0.709 -4.51,-1.063 -6.969,-1.063c-3.416,0 -6.489,0.604 -9.218,1.813c-2.729,1.208 -5.031,2.875 -6.906,5c-1.875,2.125 -3.313,4.614 -4.313,7.468c-1,2.854 -1.5,5.948 -1.5,9.282c0,3.25 0.5,6.281 1.5,9.093c1,2.813 2.438,5.261 4.313,7.344c1.875,2.083 4.177,3.719 6.906,4.906c2.729,1.188 5.802,1.782 9.219,1.782c2.75,-0.001 5.27,-0.417 7.562,-1.25c2.292,-0.834 4.292,-2.042 6,-3.626c1.708,-1.583 3.083,-3.499 4.125,-5.749c1.042,-2.25 1.688,-4.771 1.938,-7.563l-9.5,0c-0.375,3 -1.407,5.417 -3.094,7.25c-1.688,1.833 -4.031,2.75 -7.031,2.75c-2.209,0 -4.084,-0.427 -5.625,-1.281c-1.542,-0.854 -2.792,-1.99 -3.75,-3.406c-0.959,-1.417 -1.657,-3.011 -2.094,-4.782c-0.438,-1.771 -0.656,-3.594 -0.656,-5.469c0,-1.958 0.218,-3.854 0.656,-5.687c0.437,-1.833 1.135,-3.469 2.094,-4.906c0.958,-1.438 2.208,-2.584 3.75,-3.438c1.541,-0.854 3.416,-1.281 5.625,-1.281c1.208,0 2.364,0.198 3.468,0.594c1.104,0.396 2.094,0.948 2.969,1.656c0.875,0.708 1.604,1.531 2.188,2.469c0.583,0.937 0.958,1.969 1.125,3.094Z" style="fill:#f0b50c;fill-rule:nonzero;"/><path d="M349.438,13.375l0,32.313l8.875,-0.001l0,-14.562c0,-1.458 0.145,-2.813 0.437,-4.062c0.292,-1.251 0.781,-2.344 1.469,-3.282c0.687,-0.937 1.594,-1.677 2.719,-2.219c1.125,-0.541 2.5,-0.812 4.125,-0.812c0.541,0 1.104,0.031 1.687,0.094c0.583,0.062 1.083,0.135 1.5,0.219l0,-8.25c-0.708,-0.209 -1.354,-0.313 -1.938,-0.313c-1.125,0 -2.208,0.167 -3.249,0.5c-1.042,0.333 -2.021,0.802 -2.938,1.406c-0.917,0.604 -1.729,1.334 -2.438,2.188c-0.708,0.854 -1.27,1.781 -1.687,2.781l-0.125,0l0,-6l-8.438,0l0.001,0Z" style="fill:#f0b50c;fill-rule:nonzero;"/><path d="M373.375,23.313c0.125,-2.084 0.646,-3.813 1.563,-5.188c0.916,-1.375 2.083,-2.479 3.5,-3.313c1.416,-0.833 3.01,-1.427 4.781,-1.781c1.771,-0.354 3.552,-0.531 5.344,-0.531c1.625,0 3.27,0.115 4.937,0.344c1.667,0.229 3.188,0.677 4.563,1.344c1.375,0.666 2.5,1.593 3.375,2.781c0.875,1.187 1.312,2.76 1.312,4.719l0,16.812c0,1.458 0.083,2.854 0.25,4.188c0.167,1.333 0.458,2.333 0.875,2.999l-9,0c-0.167,-0.5 -0.302,-1.01 -0.406,-1.531c-0.104,-0.521 -0.177,-1.052 -0.219,-1.594c-1.417,1.459 -3.083,2.48 -5,3.063c-1.917,0.583 -3.875,0.875 -5.875,0.875c-1.542,0 -2.979,-0.188 -4.313,-0.563c-1.333,-0.375 -2.5,-0.958 -3.5,-1.75c-1,-0.791 -1.781,-1.791 -2.343,-3c-0.563,-1.208 -0.844,-2.645 -0.844,-4.312c0,-1.833 0.323,-3.344 0.969,-4.531c0.646,-1.188 1.479,-2.136 2.5,-2.844c1.021,-0.708 2.187,-1.24 3.5,-1.594c1.312,-0.354 2.635,-0.635 3.969,-0.843c1.333,-0.209 2.645,-0.375 3.937,-0.501c1.292,-0.125 2.438,-0.312 3.438,-0.562c1,-0.25 1.791,-0.615 2.375,-1.094c0.583,-0.479 0.854,-1.177 0.812,-2.094c0,-0.958 -0.156,-1.718 -0.469,-2.281c-0.312,-0.562 -0.729,-1 -1.25,-1.312c-0.521,-0.313 -1.125,-0.521 -1.812,-0.625c-0.688,-0.104 -1.427,-0.156 -2.219,-0.156c-1.75,0 -3.125,0.375 -4.125,1.125c-1,0.75 -1.583,1.999 -1.75,3.75l-8.875,0l0,0Zm20.5,6.562c-0.375,0.333 -0.844,0.594 -1.406,0.781c-0.563,0.188 -1.167,0.344 -1.813,0.469c-0.646,0.125 -1.323,0.229 -2.031,0.312c-0.708,0.084 -1.417,0.188 -2.125,0.313c-0.667,0.125 -1.323,0.292 -1.969,0.5c-0.646,0.208 -1.208,0.49 -1.687,0.844c-0.479,0.354 -0.865,0.802 -1.156,1.343c-0.292,0.542 -0.438,1.23 -0.438,2.063c0,0.792 0.146,1.458 0.438,2c0.291,0.542 0.687,0.969 1.187,1.281c0.5,0.313 1.083,0.532 1.75,0.657c0.667,0.125 1.354,0.187 2.063,0.187c1.75,0 3.104,-0.292 4.062,-0.875c0.958,-0.583 1.667,-1.281 2.125,-2.094c0.458,-0.812 0.74,-1.635 0.844,-2.468c0.104,-0.834 0.156,-1.501 0.156,-2.001l0,-3.312l0,0Z" style="fill:#f0b50c;fill-rule:nonzero;"/><path d="M411.563,19.313l0,26.375l8.875,-0.001l0,-26.375l6.125,0l0,-5.937l-6.125,0l0,-1.938c0,-1.333 0.26,-2.281 0.781,-2.843c0.521,-0.563 1.385,-0.844 2.594,-0.844c1.125,0 2.208,0.062 3.25,0.188l0,-6.626c-0.75,-0.041 -1.521,-0.093 -2.313,-0.156c-0.792,-0.062 -1.583,-0.094 -2.375,-0.094c-3.625,0 -6.333,0.917 -8.125,2.751c-1.792,1.833 -2.687,4.187 -2.687,7.062l0,2.5l-5.313,0l0,5.937l5.313,0l0,0.001Z" style="fill:#f0b50c;fill-rule:nonzero;"/><path d="M443.938,13.375l0,-9.688l-8.875,0.001l0,9.687l-5.375,0l0,5.938l5.375,0l0,19.062c0,1.625 0.27,2.938 0.812,3.938c0.542,0.999 1.281,1.77 2.219,2.312c0.937,0.542 2.021,0.906 3.25,1.094c1.229,0.187 2.531,0.281 3.906,0.281c0.875,0 1.771,-0.021 2.688,-0.063c0.916,-0.041 1.75,-0.124 2.5,-0.249l0,-6.875c-0.417,0.083 -0.855,0.145 -1.313,0.187c-0.458,0.042 -0.938,0.063 -1.438,0.063c-1.5,0 -2.5,-0.25 -3,-0.75c-0.499,-0.5 -0.75,-1.5 -0.75,-3l0,-16l6.5,0l0,-5.938l-6.5,0l0.001,0Z" style="fill:#f0b50c;fill-rule:nonzero;"/></svg>